<?xml version="1.0" encoding="UTF-8"?>
<svg width="12px" height="12px" viewBox="0 0 12 12" version="1.1" xmlns="http://www.w3.org/2000/svg" xmlns:xlink="http://www.w3.org/1999/xlink">
    <!-- Generator: Sketch 60 (88103) - https://sketch.com -->
    <title>Rectangle 4</title>
    <desc>Created with Sketch.</desc>
    <g id="作业_0420.1" stroke="none" stroke-width="1" fill="none" fill-rule="evenodd">
        <g id="作业_详情_未提交_未展开" transform="translate(-197.000000, -411.000000)">
            <g id="编组-7" transform="translate(167.000000, 408.000000)">
                <g id="icon_next" transform="translate(36.000000, 8.000000) rotate(-270.000000) translate(-36.000000, -8.000000) translate(29.000000, 2.000000)">
                    <rect id="Rectangle-4" x="2" y="5.68434189e-14" width="12" height="12"></rect>
                    <path d="M9.71240981,2.15685425 C9.95786969,2.15685425 10.1568542,2.35583881 10.1568542,2.60129869 L10.1568542,9.71240981 C10.1568542,9.95786969 9.95786969,10.1568542 9.71240981,10.1568542 L9.70185425,10.1558542 L2.60129869,10.1568542 C2.35583881,10.1568542 2.15685425,9.95786969 2.15685425,9.71240981 C2.15685425,9.46694992 2.35583881,9.26796536 2.60129869,9.26796536 L9.26785425,9.26785425 L9.26796536,2.60129869 C9.26796536,2.35583881 9.46694992,2.15685425 9.71240981,2.15685425 Z" id="Combined-Shape" fill="#B2B2B2" transform="translate(6.156854, 6.156854) rotate(-45.000000) translate(-6.156854, -6.156854) "></path>
                </g>
            </g>
        </g>
    </g>
</svg>